<?xml version="1.0" encoding="UTF-8" standalone="no"?>
<!DOCTYPE svg PUBLIC "-//W3C//DTD SVG 1.1//EN" "http://www.w3.org/Graphics/SVG/1.1/DTD/svg11.dtd">
<svg width="100%" height="100%" viewBox="0 0 188 50" version="1.1" xmlns="http://www.w3.org/2000/svg" xmlns:xlink="http://www.w3.org/1999/xlink" xml:space="preserve" xmlns:serif="http://www.serif.com/" style="fill-rule:evenodd;clip-rule:evenodd;stroke-linejoin:round;stroke-miterlimit:2;">
    <g id="Artboard1" transform="matrix(0.235,0,0,0.0833333,0,0)">
        <rect x="0" y="0" width="800" height="600" style="fill:none;"/>
        <g transform="matrix(1.51183,0,0,-4.26336,-392.684,2526.69)">
            <path d="M295.843,589.837L295.843,582.504L303.181,582.504L303.181,589.837L295.843,589.837ZM317.839,589.837L317.839,582.504L325.193,582.504L325.193,589.837L317.839,589.837ZM339.856,589.837L339.856,582.504L347.189,582.504L347.189,589.837L339.856,589.837ZM361.881,589.837L361.881,582.504L369.218,582.504L369.218,589.837L361.881,589.837ZM383.881,589.837L383.881,582.504L391.222,582.504L391.222,589.837L383.881,589.837ZM405.91,589.837L405.91,582.504L413.235,582.504L413.235,589.837L405.91,589.837ZM427.927,589.837L427.927,582.504L435.264,582.504L435.264,589.837L427.927,589.837ZM449.927,589.837L449.927,582.504L457.264,582.504L457.264,589.837L449.927,589.837ZM471.956,589.837L471.956,582.504L479.289,582.504L479.289,589.837L471.956,589.837ZM493.952,589.837L493.952,582.504L501.306,582.504L501.306,589.837L493.952,589.837ZM515.981,589.837L515.981,582.504L523.302,582.504L523.302,589.837L515.981,589.837ZM273.814,589.837L273.814,582.504L281.156,582.504L281.156,589.837L273.814,589.837ZM559.993,589.837L559.993,582.504L567.331,582.504L567.331,589.837L559.993,589.837ZM582.022,589.837L582.022,582.504L589.348,582.504L589.348,589.837L582.022,589.837ZM604.018,589.837L604.018,582.504L611.377,582.504L611.377,589.837L604.018,589.837ZM626.035,589.837L626.035,582.504L633.377,582.504L633.377,589.837L626.035,589.837ZM648.064,589.837L648.064,582.504L655.402,582.504L655.402,589.837L648.064,589.837ZM670.064,589.837L670.064,582.504L677.414,582.504L677.414,589.837L670.064,589.837ZM692.093,589.837L692.093,582.504L699.414,582.504L699.414,589.837L692.093,589.837ZM714.102,589.837L714.102,582.504L721.443,582.504L721.443,589.837L714.102,589.837ZM736.102,589.837L736.102,582.504L743.443,582.504L743.443,589.837L736.102,589.837ZM758.131,589.837L758.131,582.504L765.456,582.504L765.456,589.837L758.131,589.837ZM780.131,589.837L780.131,582.504L787.485,582.504L787.485,589.837L780.131,589.837ZM537.989,589.837L537.989,582.504L545.331,582.504L545.331,589.837L537.989,589.837Z" style="fill:rgb(49,89,50);fill-rule:nonzero;"/>
        </g>
        <g transform="matrix(6.29929,0,0,-17.764,-2653.03,8522.54)">
            <path d="M428.937,472.53C432.4,475.193 435.851,473.845 439.569,471.498C436.572,471.156 433.112,470.706 430.236,471.21C430.113,471.23 430,471.147 429.979,471.024C429.955,470.901 430.038,470.787 430.158,470.765C433.144,470.247 436.652,470.714 439.647,471.056C439.379,470.781 439.094,470.529 438.791,470.3C435.476,467.745 430.595,467.925 428.069,471.192C427.984,471.302 427.904,471.417 427.821,471.531C428.194,471.912 428.564,472.245 428.937,472.53ZM440.346,471.531C436.436,474.1 432.528,475.859 428.661,472.886C428.228,472.556 427.802,472.166 427.375,471.716C427.307,471.641 427.293,471.525 427.348,471.438C427.465,471.254 427.588,471.086 427.713,470.916C430.42,467.418 435.575,467.265 439.067,469.942C439.541,470.309 439.984,470.729 440.391,471.201C440.439,471.254 440.456,471.321 440.442,471.389C440.442,471.389 440.439,471.392 440.439,471.395L440.439,471.396C440.439,471.405 440.436,471.411 440.436,471.417C440.428,471.438 440.414,471.461 440.401,471.483C440.384,471.5 440.366,471.521 440.346,471.531Z" style="fill:rgb(124,194,86);fill-rule:nonzero;"/>
        </g>
        <g transform="matrix(6.29929,0,0,-17.764,-2653.03,8522.54)">
            <path d="M480.284,446.855C481.378,449.983 481.739,453.456 481.646,456.752C481.567,459.43 481.354,462.356 480.032,464.746C479.355,465.975 478.285,467.226 477.12,468.02C475.431,469.17 473.38,469.746 471.448,470.339C470.319,470.687 470.109,471.489 470.336,472.58C470.481,473.263 471.383,473.924 471.465,474.509C471.571,475.264 471.142,475.655 470.361,475.079C469.27,474.284 469.246,471.806 469.593,470.681C467.554,469.872 465.586,466.537 465.177,464.506C463.629,456.791 469.638,450.376 476.28,447.679C476.58,447.556 480.039,446.165 480.284,446.855Z" style="fill:rgb(124,194,86);fill-rule:nonzero;"/>
        </g>
        <g transform="matrix(6.29929,0,0,-17.764,-2653.03,8522.54)">
            <path d="M547.828,461.791C546.02,464.572 543.491,466.981 540.829,468.921C538.662,470.496 536.219,472.122 533.519,472.536C532.134,472.754 530.486,472.673 529.148,472.236C527.204,471.604 525.494,470.337 523.844,469.17C522.877,468.487 522.117,468.812 521.391,469.659C520.94,470.188 520.965,471.311 520.552,471.732C520.021,472.278 519.45,472.181 519.424,471.21C519.393,469.86 521.336,468.322 522.44,467.908C521.831,465.801 523.266,462.203 524.621,460.639C529.781,454.695 538.531,455.523 544.729,459.128C545.008,459.29 548.224,461.176 547.828,461.791Z" style="fill:rgb(124,194,86);fill-rule:nonzero;"/>
        </g>
        <g transform="matrix(6.29929,0,0,-17.764,-2653.03,8522.54)">
            <path d="M443.201,457.997C443.201,464.911 448.219,467.936 454.748,470.331C452.285,466.249 449.514,461.473 446.111,458.355C445.967,458.224 445.956,457.997 446.09,457.852C446.222,457.706 446.448,457.698 446.592,457.829C450.122,461.072 452.918,465.927 455.378,470.004C455.463,469.402 455.501,468.801 455.501,468.201C455.501,461.581 450.568,455.639 444.04,455.625C443.816,455.625 443.6,455.63 443.376,455.645C443.26,456.478 443.201,457.259 443.201,457.997ZM455.449,471.341C448.471,468.918 442.489,465.711 442.489,457.997C442.489,457.139 442.564,456.227 442.716,455.255C442.74,455.099 442.871,454.973 443.036,454.956C443.373,454.925 443.71,454.917 444.04,454.911C451.032,454.925 456.203,461.246 456.213,468.201C456.213,469.153 456.121,470.115 455.918,471.078C455.896,471.188 455.821,471.276 455.728,471.321C455.725,471.321 455.721,471.324 455.718,471.327C455.715,471.327 455.715,471.33 455.711,471.33C455.704,471.333 455.697,471.335 455.689,471.338C455.649,471.353 455.611,471.357 455.569,471.357C455.531,471.357 455.491,471.355 455.449,471.341Z" style="fill:rgb(81,180,71);fill-rule:nonzero;"/>
        </g>
        <g transform="matrix(6.29929,0,0,-17.764,-2653.03,8522.54)">
            <path d="M491.903,465.4C494.029,471.979 499.736,473.311 506.681,473.585C503.09,470.46 498.979,466.767 494.786,464.847C494.607,464.763 494.527,464.553 494.61,464.374C494.692,464.192 494.902,464.116 495.077,464.197C499.439,466.198 503.588,469.956 507.186,473.081C507.079,472.482 506.931,471.897 506.749,471.33C504.712,465.028 498.194,460.888 491.976,462.88C491.766,462.95 491.559,463.022 491.354,463.106C491.494,463.932 491.677,464.698 491.903,465.4ZM507.664,474.329C500.276,474.17 493.599,472.961 491.229,465.616C490.964,464.802 490.754,463.909 490.604,462.941C490.579,462.779 490.662,462.619 490.816,462.556C491.127,462.421 491.442,462.307 491.755,462.203C498.418,460.065 505.276,464.491 507.424,471.108C507.716,472.016 507.922,472.961 508.027,473.938C508.039,474.05 507.997,474.155 507.922,474.229C507.919,474.229 507.914,474.231 507.912,474.234C507.912,474.237 507.907,474.239 507.907,474.239C507.9,474.245 507.897,474.251 507.891,474.254L507.887,474.257C507.855,474.281 507.822,474.299 507.78,474.313C507.747,474.323 507.705,474.329 507.664,474.329Z" style="fill:rgb(81,180,71);fill-rule:nonzero;"/>
        </g>
        <g transform="matrix(6.29929,0,0,-17.764,-2653.03,8522.54)">
            <path d="M516.102,454.527C513.356,457.925 514.617,461.411 516.875,465.183C517.288,462.2 517.825,458.747 517.392,455.862C517.375,455.739 517.456,455.625 517.58,455.607C517.705,455.588 517.818,455.672 517.835,455.795C518.281,458.792 517.729,462.289 517.315,465.274C517.594,465.012 517.854,464.732 518.09,464.436C520.721,461.182 520.662,456.299 517.46,453.696C517.354,453.607 517.24,453.523 517.125,453.442C516.737,453.803 516.393,454.17 516.102,454.527ZM516.82,465.96C514.349,461.99 512.685,458.039 515.755,454.245C516.094,453.822 516.497,453.403 516.955,452.989C517.03,452.922 517.143,452.913 517.229,452.97C517.412,453.09 517.58,453.216 517.742,453.347C521.174,456.134 521.198,461.296 518.44,464.721C518.062,465.186 517.632,465.622 517.15,466.017C517.094,466.062 517.026,466.075 516.958,466.062C516.958,466.062 516.958,466.059 516.955,466.059C516.955,466.059 516.95,466.059 516.95,466.056C516.948,466.056 516.94,466.056 516.934,466.053C516.909,466.044 516.888,466.03 516.867,466.017C516.847,466 516.83,465.98 516.82,465.96Z" style="fill:rgb(124,194,86);fill-rule:nonzero;"/>
        </g>
    </g>
</svg>
