<?xml version="1.0" encoding="UTF-8" standalone="no"?>
<!DOCTYPE svg PUBLIC "-//W3C//DTD SVG 1.1//EN" "http://www.w3.org/Graphics/SVG/1.1/DTD/svg11.dtd">
<svg width="100%" height="100%" viewBox="0 0 426 52" version="1.1" xmlns="http://www.w3.org/2000/svg" xmlns:xlink="http://www.w3.org/1999/xlink" xml:space="preserve" xmlns:serif="http://www.serif.com/" style="fill-rule:evenodd;clip-rule:evenodd;stroke-linejoin:round;stroke-miterlimit:2;">
    <g transform="matrix(0.666667,0,0,0.666667,-426.511,-269.655)">
        <g transform="matrix(0.139415,6.93889e-18,-3.46945e-18,0.05625,855.217,438.665)">
            <rect x="612.011" y="291.496" width="96.833" height="26.667"/>
        </g>
        <g transform="matrix(0.139415,6.93889e-18,-3.46945e-18,0.05625,900.005,438.665)">
            <rect x="612.011" y="291.496" width="96.833" height="26.667"/>
        </g>
        <g transform="matrix(48,0,0,48,960.492,472.28)">
            <path d="M0.333,-0.373C0.336,-0.366 0.333,-0.36 0.325,-0.354C0.317,-0.347 0.304,-0.343 0.287,-0.341C0.257,-0.337 0.226,-0.333 0.195,-0.329C0.164,-0.324 0.132,-0.32 0.099,-0.315C0.098,-0.281 0.098,-0.247 0.099,-0.213C0.114,-0.213 0.133,-0.215 0.155,-0.218C0.176,-0.221 0.198,-0.224 0.221,-0.229C0.244,-0.234 0.266,-0.238 0.286,-0.244C0.308,-0.249 0.325,-0.253 0.34,-0.256C0.347,-0.258 0.355,-0.26 0.363,-0.261C0.371,-0.262 0.378,-0.262 0.385,-0.261C0.391,-0.26 0.396,-0.257 0.4,-0.253C0.404,-0.249 0.406,-0.243 0.406,-0.236C0.406,-0.234 0.404,-0.231 0.399,-0.227C0.394,-0.223 0.389,-0.219 0.382,-0.215C0.375,-0.21 0.367,-0.206 0.36,-0.203C0.352,-0.199 0.345,-0.196 0.339,-0.194C0.298,-0.181 0.257,-0.169 0.217,-0.16C0.177,-0.15 0.138,-0.145 0.1,-0.144C0.078,-0.143 0.061,-0.149 0.05,-0.162C0.039,-0.174 0.033,-0.192 0.032,-0.215C0.031,-0.248 0.031,-0.281 0.032,-0.314C0.021,-0.321 0.015,-0.33 0.015,-0.342C0.016,-0.355 0.022,-0.363 0.033,-0.368C0.034,-0.387 0.035,-0.407 0.036,-0.427C0.037,-0.446 0.038,-0.466 0.039,-0.485C0.032,-0.486 0.025,-0.49 0.02,-0.496C0.014,-0.502 0.011,-0.509 0.011,-0.516C0.011,-0.522 0.012,-0.528 0.015,-0.533C0.018,-0.538 0.023,-0.541 0.03,-0.544C0.042,-0.547 0.057,-0.55 0.074,-0.553C0.091,-0.556 0.109,-0.559 0.128,-0.562C0.146,-0.565 0.164,-0.567 0.181,-0.569C0.198,-0.571 0.212,-0.572 0.224,-0.573C0.238,-0.574 0.252,-0.573 0.265,-0.569C0.278,-0.565 0.29,-0.557 0.301,-0.546C0.304,-0.537 0.302,-0.53 0.296,-0.525C0.289,-0.52 0.281,-0.517 0.271,-0.516C0.261,-0.515 0.249,-0.513 0.235,-0.511C0.221,-0.51 0.206,-0.508 0.192,-0.506C0.177,-0.504 0.162,-0.502 0.147,-0.5C0.132,-0.499 0.117,-0.497 0.104,-0.495C0.104,-0.494 0.104,-0.492 0.105,-0.491C0.105,-0.489 0.105,-0.487 0.105,-0.486C0.104,-0.469 0.103,-0.451 0.102,-0.434C0.101,-0.417 0.101,-0.399 0.1,-0.382C0.128,-0.387 0.157,-0.391 0.186,-0.395C0.215,-0.398 0.239,-0.401 0.256,-0.402C0.27,-0.403 0.284,-0.402 0.297,-0.397C0.31,-0.392 0.322,-0.384 0.333,-0.373Z" style="fill-rule:nonzero;"/>
        </g>
        <g transform="matrix(1.5,0,0,1.5,1026.2,404.483)">
            <path d="M66.299,49.417C66.384,49.565 66.426,49.745 66.426,49.958C66.426,50.276 66.315,50.552 66.092,50.785C65.87,51.018 65.578,51.135 65.217,51.135C64.984,51.135 64.777,51.082 64.597,50.976C64.417,50.87 64.273,50.711 64.167,50.498C63.764,49.714 63.409,48.733 63.102,47.555C62.794,46.378 62.529,45.069 62.306,43.626C62.083,42.184 61.903,40.63 61.765,38.965C61.627,37.3 61.516,35.577 61.431,33.795C59.84,34.007 58.053,34.24 56.07,34.495C54.087,34.749 51.823,35.046 49.277,35.386C47.496,35.64 45.682,35.863 43.837,36.054C39.298,40.996 34.52,44.745 29.504,47.301C24.487,49.857 19.455,51.135 14.407,51.135C12.159,51.135 10.212,50.917 8.569,50.483C6.925,50.048 5.567,49.56 4.496,49.019C3.425,48.478 2.619,47.974 2.078,47.508C1.537,47.041 1.246,46.787 1.203,46.744C0.991,46.532 0.885,46.256 0.885,45.917C0.885,45.578 1.002,45.291 1.235,45.058C1.468,44.825 1.744,44.708 2.062,44.708C2.423,44.708 2.72,44.835 2.953,45.09C2.995,45.132 3.25,45.35 3.717,45.742C4.183,46.134 4.878,46.553 5.801,46.999C6.723,47.444 7.895,47.847 9.316,48.208C10.737,48.568 12.424,48.749 14.375,48.749C17.048,48.749 19.604,48.388 22.043,47.667C24.482,46.946 26.789,46.007 28.963,44.851C31.137,43.695 33.163,42.375 35.04,40.89C36.917,39.405 38.619,37.899 40.146,36.372C38.64,36.499 37.145,36.595 35.66,36.658C34.175,36.722 32.712,36.754 31.269,36.754C28.427,36.754 25.723,36.595 23.156,36.277C20.59,35.958 18.331,35.423 16.379,34.67C14.428,33.917 12.874,32.915 11.718,31.663C10.562,30.412 9.984,28.853 9.984,26.986C9.984,26.138 10.159,25.289 10.509,24.441C10.859,23.593 11.278,22.824 11.766,22.134C12.254,21.445 12.763,20.883 13.293,20.448C13.824,20.013 14.28,19.796 14.661,19.796C14.958,19.796 15.234,19.902 15.489,20.114C15.743,20.326 15.87,20.612 15.87,20.973C15.87,21.164 15.828,21.35 15.743,21.53C15.658,21.71 15.531,21.853 15.361,21.959C15.319,22.002 15.139,22.15 14.82,22.405C14.502,22.659 14.163,23.004 13.802,23.439C13.442,23.874 13.113,24.393 12.816,24.998C12.519,25.602 12.371,26.255 12.371,26.954C12.371,28.164 12.79,29.229 13.627,30.152C14.465,31.075 15.685,31.849 17.286,32.475C18.888,33.1 20.855,33.572 23.188,33.89C25.521,34.209 28.183,34.368 31.174,34.368C32.892,34.368 34.706,34.315 36.615,34.209C38.524,34.103 40.539,33.943 42.66,33.731C43.678,32.607 44.579,31.547 45.364,30.55C46.149,29.553 46.817,28.662 47.368,27.877C48.281,26.583 49.235,25.205 50.232,23.741C51.229,22.278 52.22,20.793 53.207,19.287C54.193,17.781 55.158,16.291 56.102,14.817C57.046,13.342 57.931,11.953 58.759,10.649C59.586,9.344 60.328,8.156 60.986,7.085C61.643,6.014 62.184,5.129 62.608,4.429C62.736,3.856 62.927,3.331 63.181,2.854C63.436,2.376 63.849,2.138 64.422,2.138C64.74,2.138 65.048,2.27 65.345,2.536C65.642,2.801 65.79,3.135 65.79,3.538C65.79,3.835 65.684,4.153 65.472,4.492C65.26,4.832 65.058,5.118 64.867,5.351C64.804,5.754 64.703,6.613 64.565,7.928C64.427,9.243 64.289,10.85 64.151,12.749C64.014,14.647 63.897,16.736 63.802,19.016C63.706,21.297 63.658,23.603 63.658,25.936L63.658,28.513C63.658,29.362 63.68,30.221 63.722,31.091C66.904,30.688 69.226,30.407 70.69,30.247C72.153,30.088 72.927,30.009 73.012,30.009C73.288,30.009 73.558,30.12 73.824,30.343C74.089,30.566 74.221,30.857 74.221,31.218C74.221,31.515 74.121,31.775 73.919,31.997C73.718,32.22 73.458,32.353 73.14,32.395C72.758,32.437 72.312,32.491 71.803,32.554C71.294,32.618 70.669,32.692 69.926,32.777C69.184,32.862 68.314,32.962 67.317,33.079C66.32,33.196 65.154,33.339 63.817,33.509C63.881,35.248 63.982,36.918 64.12,38.52C64.258,40.121 64.427,41.611 64.629,42.99C64.83,44.369 65.069,45.609 65.345,46.712C65.62,47.815 65.939,48.717 66.299,49.417ZM133.116,39.105C132.993,38.396 132.886,37.681 132.795,36.961C132.583,35.274 132.44,33.636 132.365,32.045C132.291,30.454 132.254,29.044 132.254,27.814C132.254,26.032 132.312,24.186 132.429,22.278C132.546,20.369 132.731,18.502 132.986,16.678C133.24,14.854 133.564,13.125 133.956,11.492C134.349,9.859 134.815,8.427 135.356,7.197C135.897,5.966 136.517,4.991 137.217,4.27C137.917,3.548 138.713,3.188 139.604,3.188C140.304,3.188 140.935,3.352 141.497,3.681C142.059,4.01 142.531,4.545 142.913,5.288C143.294,6.03 143.591,6.995 143.803,8.183C144.015,9.371 144.122,10.824 144.122,12.542C144.122,14.663 143.899,16.853 143.453,19.112C143.008,21.371 142.403,23.646 141.64,25.936C140.876,28.227 139.975,30.513 138.935,32.793C137.896,35.073 136.783,37.295 135.595,39.458C136.125,42.152 136.836,44.268 137.726,45.806C138.617,47.343 139.688,48.112 140.94,48.112C141.788,48.112 142.605,47.778 143.39,47.11C144.175,46.442 144.896,45.652 145.553,44.74C146.211,43.828 146.789,42.9 147.287,41.956C147.786,41.012 148.173,40.254 148.449,39.681C148.516,39.545 148.601,39.429 148.704,39.333C148.76,39.038 148.829,38.751 148.91,38.472C149.175,37.56 149.557,36.764 150.055,36.086C150.554,35.407 151.148,34.877 151.837,34.495C152.526,34.113 153.285,33.922 154.112,33.922C154.6,33.922 155.082,34.023 155.559,34.224C156.037,34.426 156.466,34.712 156.848,35.084C157.23,35.455 157.537,35.905 157.771,36.436C158.004,36.966 158.121,37.57 158.121,38.249C158.121,39.119 157.972,39.935 157.675,40.699C157.378,41.463 156.97,42.173 156.45,42.831C155.931,43.488 155.31,44.093 154.589,44.644C153.868,45.196 153.094,45.673 152.266,46.076C152.712,46.691 153.285,47.184 153.985,47.555C154.685,47.927 155.544,48.112 156.562,48.112C157.601,48.112 158.545,47.863 159.393,47.365C160.242,46.866 161.016,46.214 161.716,45.408C162.416,44.602 163.042,43.7 163.593,42.704C164.145,41.707 164.643,40.71 165.088,39.713C165.194,39.479 165.343,39.304 165.534,39.188C165.725,39.071 165.937,39.013 166.17,39.013C166.531,39.013 166.822,39.14 167.045,39.395C167.268,39.649 167.379,39.925 167.379,40.222C167.379,40.328 167.369,40.418 167.347,40.492C167.326,40.567 167.294,40.646 167.252,40.731C165.788,43.955 164.192,46.384 162.464,48.017C160.735,49.65 158.778,50.488 156.593,50.53C155.194,50.53 153.985,50.26 152.966,49.719C151.948,49.178 151.11,48.478 150.453,47.619C149.795,46.76 149.308,45.79 148.989,44.708C148.931,44.509 148.878,44.31 148.83,44.11C148.737,44.266 148.642,44.423 148.544,44.581C148.099,45.302 147.6,46.018 147.049,46.728C146.497,47.439 145.898,48.075 145.251,48.637C144.604,49.199 143.915,49.655 143.183,50.005C142.451,50.355 141.672,50.53 140.844,50.53C139.572,50.53 138.479,50.138 137.567,49.353C136.655,48.568 135.881,47.54 135.245,46.267C134.679,45.135 134.21,43.865 133.837,42.457C132.607,44.836 131.289,46.689 129.884,48.017C128.155,49.65 126.198,50.488 124.014,50.53C122.614,50.53 121.405,50.26 120.387,49.719C119.369,49.178 118.531,48.478 117.873,47.619C117.216,46.76 116.728,45.79 116.41,44.708C116.34,44.473 116.279,44.238 116.225,44.003C116.08,44.236 115.929,44.471 115.773,44.708C115.285,45.45 114.75,46.187 114.167,46.919C113.583,47.651 112.963,48.308 112.305,48.892C111.648,49.475 110.958,49.947 110.237,50.308C109.516,50.668 108.784,50.848 108.042,50.848C107.087,50.848 106.25,50.647 105.528,50.244C104.807,49.841 104.197,49.3 103.699,48.621C103.201,47.943 102.829,47.142 102.585,46.219C102.442,45.676 102.341,45.11 102.282,44.519C102.017,44.924 101.731,45.342 101.424,45.774C100.873,46.548 100.263,47.253 99.595,47.89C98.927,48.526 98.205,49.056 97.431,49.48C96.657,49.905 95.846,50.117 94.997,50.117C94.043,50.117 93.269,49.931 92.675,49.56C92.081,49.189 91.614,48.701 91.275,48.096C90.935,47.492 90.707,46.824 90.591,46.092C90.474,45.36 90.416,44.623 90.416,43.881C90.416,43.563 90.432,43.202 90.463,42.799C90.495,42.396 90.538,41.972 90.591,41.526C90.644,41.081 90.686,40.635 90.718,40.19C90.75,39.745 90.766,39.32 90.766,38.917C90.766,38.239 90.66,37.777 90.448,37.533C90.235,37.289 90.045,37.167 89.875,37.167C89.536,37.167 89.148,37.364 88.714,37.756C88.279,38.148 87.823,38.663 87.346,39.299C86.868,39.935 86.38,40.651 85.882,41.447C85.384,42.242 84.917,43.032 84.482,43.817C84.047,44.602 83.644,45.35 83.273,46.06C82.902,46.771 82.61,47.359 82.398,47.826C81.974,48.717 81.55,49.316 81.125,49.624C80.701,49.931 80.266,50.085 79.821,50.085C79.206,50.085 78.713,49.899 78.342,49.528C77.97,49.157 77.785,48.632 77.785,47.953C77.785,47.805 77.806,47.513 77.848,47.078C77.891,46.643 77.944,46.124 78.007,45.519C78.071,44.915 78.135,44.263 78.198,43.563C78.262,42.863 78.326,42.168 78.389,41.479C78.453,40.789 78.506,40.148 78.548,39.554C78.591,38.96 78.612,38.461 78.612,38.058C78.612,37.528 78.591,37.019 78.548,36.531C78.506,36.043 78.421,35.746 78.294,35.64C78.103,35.704 77.764,36.102 77.276,36.833C76.788,37.565 76.162,38.854 75.399,40.699C75.292,40.932 75.133,41.113 74.921,41.24C74.709,41.367 74.486,41.431 74.253,41.431C73.893,41.431 73.606,41.309 73.394,41.065C73.182,40.821 73.076,40.54 73.076,40.222C73.076,40.073 73.108,39.914 73.171,39.745C74.126,37.475 75.022,35.805 75.86,34.734C76.698,33.662 77.53,33.127 78.357,33.127C78.845,33.127 79.259,33.249 79.598,33.493C79.938,33.737 80.208,34.06 80.41,34.463C80.611,34.866 80.76,35.312 80.855,35.799C80.95,36.287 80.998,36.786 80.998,37.295C80.998,37.677 80.972,38.27 80.919,39.076C80.866,39.882 80.797,40.747 80.712,41.669C80.627,42.592 80.547,43.51 80.473,44.422C80.399,45.334 80.33,46.097 80.266,46.712C80.606,46.012 80.998,45.243 81.444,44.406C81.889,43.568 82.366,42.719 82.875,41.86C83.384,41.001 83.92,40.148 84.482,39.299C85.044,38.451 85.633,37.645 86.248,36.881C86.863,36.139 87.483,35.603 88.109,35.274C88.735,34.946 89.323,34.781 89.875,34.781C90.978,34.781 91.794,35.184 92.325,35.99C92.855,36.796 93.12,37.793 93.12,38.981C93.12,39.257 93.104,39.591 93.072,39.983C93.041,40.376 93.009,40.795 92.977,41.24C92.945,41.685 92.913,42.136 92.882,42.592C92.85,43.048 92.834,43.478 92.834,43.881C92.834,44.39 92.86,44.878 92.913,45.344C92.966,45.811 93.067,46.219 93.216,46.569C93.364,46.919 93.576,47.195 93.852,47.396C94.128,47.598 94.488,47.699 94.934,47.699C95.74,47.699 96.524,47.386 97.288,46.76C98.052,46.134 98.757,45.392 99.404,44.533C100.051,43.674 100.613,42.799 101.09,41.908C101.567,41.017 101.923,40.296 102.156,39.745C102.201,39.646 102.255,39.556 102.317,39.476C102.409,37.685 102.568,35.897 102.792,34.113C102.835,33.816 102.967,33.556 103.19,33.334C103.413,33.111 103.704,33 104.065,33C104.383,33 104.648,33.122 104.86,33.365C105.072,33.609 105.178,33.89 105.178,34.209C105.178,34.336 105.152,34.718 105.099,35.354C105.046,35.99 104.982,36.749 104.908,37.629C104.834,38.509 104.77,39.442 104.717,40.429C104.664,41.415 104.638,42.322 104.638,43.149C104.638,44.273 104.749,45.18 104.972,45.869C105.194,46.559 105.481,47.094 105.831,47.476C106.181,47.858 106.552,48.112 106.944,48.24C107.337,48.367 107.713,48.43 108.074,48.43C108.668,48.43 109.283,48.218 109.919,47.794C110.555,47.37 111.208,46.776 111.876,46.012C112.544,45.249 113.217,44.331 113.896,43.26C114.575,42.189 115.243,40.996 115.901,39.681C115.959,39.563 116.032,39.46 116.117,39.372C116.174,39.063 116.245,38.763 116.33,38.472C116.595,37.56 116.977,36.764 117.475,36.086C117.974,35.407 118.568,34.877 119.257,34.495C119.947,34.113 120.705,33.922 121.532,33.922C122.02,33.922 122.502,34.023 122.98,34.224C123.457,34.426 123.886,34.712 124.268,35.084C124.65,35.455 124.958,35.905 125.191,36.436C125.424,36.966 125.541,37.57 125.541,38.249C125.541,39.119 125.392,39.935 125.095,40.699C124.798,41.463 124.39,42.173 123.871,42.831C123.351,43.488 122.73,44.093 122.009,44.644C121.288,45.196 120.514,45.673 119.687,46.076C120.132,46.691 120.705,47.184 121.405,47.555C122.105,47.927 122.964,48.112 123.982,48.112C125.021,48.112 125.965,47.863 126.814,47.365C127.662,46.866 128.436,46.214 129.136,45.408C129.836,44.602 130.462,43.7 131.013,42.704C131.565,41.707 132.063,40.71 132.509,39.713C132.615,39.479 132.763,39.304 132.954,39.188C133.007,39.156 133.061,39.128 133.116,39.105ZM118.732,44.008C119.39,43.732 119.989,43.382 120.53,42.958C121.071,42.534 121.532,42.067 121.914,41.558C122.296,41.049 122.593,40.513 122.805,39.951C123.017,39.389 123.123,38.822 123.123,38.249C123.123,37.613 122.964,37.13 122.646,36.802C122.327,36.473 121.956,36.308 121.532,36.308C120.959,36.308 120.471,36.468 120.068,36.786C119.665,37.104 119.337,37.517 119.082,38.027C118.828,38.536 118.642,39.103 118.525,39.729C118.409,40.354 118.35,40.975 118.35,41.59C118.35,41.972 118.388,42.375 118.462,42.799C118.536,43.223 118.626,43.626 118.732,44.008ZM151.312,44.008C151.97,43.732 152.569,43.382 153.11,42.958C153.65,42.534 154.112,42.067 154.494,41.558C154.875,41.049 155.172,40.513 155.384,39.951C155.597,39.389 155.703,38.822 155.703,38.249C155.703,37.613 155.544,37.13 155.225,36.802C154.907,36.473 154.536,36.308 154.112,36.308C153.539,36.308 153.051,36.468 152.648,36.786C152.245,37.104 151.916,37.517 151.662,38.027C151.407,38.536 151.222,39.103 151.105,39.729C150.989,40.354 150.93,40.975 150.93,41.59C150.93,41.972 150.967,42.375 151.042,42.799C151.116,43.223 151.206,43.626 151.312,44.008ZM134.672,27.973C134.672,29.33 134.704,30.635 134.768,31.886C134.831,33.137 134.916,34.336 135.022,35.481C135.913,33.763 136.761,31.934 137.567,29.993C138.373,28.052 139.084,26.09 139.699,24.107C140.314,22.124 140.807,20.151 141.179,18.189C141.55,16.227 141.735,14.355 141.735,12.574C141.735,10.071 141.534,8.278 141.131,7.197C140.728,6.115 140.187,5.574 139.508,5.574C139.063,5.574 138.633,5.882 138.22,6.497C137.806,7.112 137.419,7.95 137.058,9.01C136.698,10.071 136.369,11.322 136.072,12.764C135.775,14.207 135.526,15.755 135.324,17.41C135.123,19.064 134.964,20.793 134.847,22.596C134.73,24.399 134.672,26.191 134.672,27.973ZM48.959,33C51.462,32.66 53.737,32.358 55.784,32.093C57.831,31.828 59.681,31.589 61.336,31.377C61.315,30.465 61.299,29.553 61.288,28.641C61.277,27.729 61.272,26.806 61.272,25.873C61.272,22.882 61.325,20.024 61.431,17.298C61.537,14.573 61.686,12.202 61.877,10.187C61.028,11.524 60.09,13.003 59.061,14.626C58.032,16.248 56.966,17.903 55.863,19.589C54.76,21.275 53.647,22.946 52.523,24.6C51.399,26.255 50.327,27.803 49.309,29.245C48.8,29.966 48.281,30.666 47.75,31.345C47.22,32.024 46.69,32.692 46.159,33.35C46.626,33.307 47.087,33.254 47.543,33.19C47.999,33.127 48.471,33.063 48.959,33ZM107.374,24.6C107.374,25.406 107.093,26.09 106.531,26.652C105.969,27.214 105.285,27.495 104.479,27.495C103.673,27.495 102.988,27.214 102.426,26.652C101.864,26.09 101.583,25.406 101.583,24.6C101.583,24.197 101.657,23.821 101.806,23.471C101.954,23.121 102.161,22.813 102.426,22.548C102.692,22.283 102.999,22.076 103.349,21.928C103.699,21.779 104.076,21.705 104.479,21.705C104.882,21.705 105.258,21.779 105.608,21.928C105.958,22.076 106.266,22.283 106.531,22.548C106.796,22.813 107.003,23.121 107.151,23.471C107.3,23.821 107.374,24.197 107.374,24.6ZM105.592,24.6C105.592,24.303 105.481,24.043 105.258,23.821C105.035,23.598 104.775,23.487 104.479,23.487C104.182,23.487 103.927,23.598 103.715,23.821C103.503,24.043 103.397,24.303 103.397,24.6C103.397,24.897 103.503,25.152 103.715,25.364C103.927,25.576 104.182,25.682 104.479,25.682C104.775,25.682 105.035,25.576 105.258,25.364C105.481,25.152 105.592,24.897 105.592,24.6Z" style="fill-rule:nonzero;"/>
        </g>
        <g transform="matrix(1.5,0,0,1.5,272.663,404.483)">
            <path d="M354.843,39.99C354.735,39.52 354.637,39.035 354.547,38.536C354.122,36.181 353.91,33.604 353.91,30.804C353.91,30.104 353.921,29.282 353.942,28.338C353.963,27.395 354.006,26.398 354.069,25.348C354.133,24.298 354.229,23.216 354.356,22.103C354.483,20.989 354.653,19.902 354.865,18.841L343.443,18.841C343.103,18.841 342.817,18.741 342.584,18.539C342.35,18.338 342.234,18.067 342.234,17.728C342.234,17.388 342.35,17.118 342.584,16.916C342.817,16.715 343.103,16.614 343.443,16.614L355.406,16.614C355.618,15.851 355.867,15.151 356.153,14.514C356.44,13.878 356.769,13.327 357.14,12.86C357.511,12.393 357.925,12.027 358.381,11.762C358.837,11.497 359.34,11.365 359.892,11.365C360.422,11.365 360.883,11.497 361.276,11.762C361.668,12.027 362.002,12.393 362.278,12.86C362.554,13.327 362.771,13.878 362.93,14.514C363.089,15.151 363.211,15.851 363.296,16.614L379.554,16.614C379.894,16.614 380.18,16.715 380.413,16.916C380.647,17.118 380.763,17.388 380.763,17.728C380.763,18.067 380.647,18.338 380.413,18.539C380.18,18.741 379.894,18.841 379.554,18.841L363.423,18.841L363.423,19.191C363.423,20.485 363.328,21.864 363.137,23.327C362.946,24.791 362.686,26.249 362.358,27.702C362.029,29.155 361.658,30.571 361.244,31.95C360.83,33.328 360.406,34.601 359.971,35.768C359.537,36.934 359.107,37.947 358.683,38.806C358.259,39.665 357.877,40.307 357.537,40.731C357.813,41.707 358.142,42.613 358.524,43.451C358.906,44.289 359.335,45.021 359.812,45.647C360.29,46.272 360.804,46.765 361.355,47.126C361.907,47.487 362.501,47.667 363.137,47.667C363.879,47.667 364.617,47.354 365.348,46.728C366.08,46.103 366.759,45.36 367.385,44.501C368.01,43.642 368.562,42.772 369.039,41.892C369.516,41.012 369.861,40.307 370.073,39.776C370.143,39.608 370.231,39.468 370.336,39.355C370.429,37.604 370.585,35.857 370.805,34.113C370.847,33.816 370.98,33.556 371.202,33.334C371.425,33.111 371.717,33 372.077,33C372.396,33 372.661,33.122 372.873,33.365C373.085,33.609 373.191,33.89 373.191,34.209C373.191,34.336 373.164,34.718 373.111,35.354C373.058,35.99 372.995,36.749 372.921,37.629C372.846,38.509 372.783,39.442 372.73,40.429C372.677,41.415 372.65,42.322 372.65,43.149C372.65,44.273 372.761,45.18 372.984,45.869C373.207,46.559 373.493,47.094 373.843,47.476C374.193,47.858 374.564,48.112 374.957,48.24C375.349,48.367 375.726,48.43 376.086,48.43C376.68,48.43 377.295,48.218 377.932,47.794C378.568,47.37 379.22,46.776 379.888,46.012C380.556,45.249 381.23,44.331 381.909,43.26C382.587,42.189 383.256,40.996 383.913,39.681C384.019,39.469 384.168,39.304 384.358,39.188C384.396,39.165 384.434,39.145 384.473,39.126C384.978,38.154 385.587,37.321 386.299,36.627C387.169,35.778 388.129,35.142 389.179,34.718C390.229,34.293 391.241,34.081 392.217,34.081C392.875,34.081 393.479,34.171 394.031,34.352C394.582,34.532 395.054,34.728 395.446,34.94C395.839,35.152 396.141,35.349 396.353,35.529C396.565,35.709 396.682,35.81 396.703,35.831C396.936,36.107 397.053,36.393 397.053,36.69C397.053,37.008 396.936,37.289 396.703,37.533C396.47,37.777 396.194,37.899 395.876,37.899C395.537,37.899 395.25,37.783 395.017,37.549C394.974,37.507 394.879,37.427 394.731,37.311C394.582,37.194 394.381,37.072 394.126,36.945C393.872,36.818 393.569,36.706 393.219,36.611C392.869,36.515 392.472,36.468 392.026,36.468C391.369,36.468 390.669,36.616 389.926,36.913C389.184,37.21 388.505,37.671 387.89,38.297C387.275,38.923 386.761,39.707 386.347,40.651C385.933,41.595 385.727,42.714 385.727,44.008C385.727,44.411 385.769,44.819 385.854,45.233C385.939,45.647 386.087,46.023 386.299,46.362C386.511,46.702 386.798,46.977 387.158,47.19C387.519,47.402 387.964,47.508 388.495,47.508C388.876,47.508 389.316,47.38 389.815,47.126C390.313,46.871 390.791,46.479 391.247,45.949C391.703,45.418 392.116,44.75 392.488,43.944C392.859,43.138 393.119,42.184 393.267,41.081C393.309,40.784 393.447,40.535 393.681,40.333C393.914,40.132 394.19,40.031 394.508,40.031C394.805,40.031 395.065,40.148 395.287,40.381C395.51,40.614 395.632,40.879 395.653,41.176C395.674,41.579 395.717,42.147 395.78,42.878C395.844,43.61 395.987,44.337 396.21,45.058C396.433,45.779 396.767,46.405 397.212,46.935C397.658,47.465 398.273,47.73 399.058,47.73C399.567,47.73 400.07,47.593 400.569,47.317C401.067,47.041 401.555,46.675 402.032,46.219C402.51,45.763 402.966,45.243 403.4,44.66C403.835,44.077 404.233,43.488 404.594,42.894C404.954,42.301 405.272,41.728 405.548,41.176C405.824,40.625 406.057,40.148 406.248,39.745C406.327,39.571 406.432,39.427 406.564,39.312C407.021,38.404 407.366,37.599 407.6,36.897C407.865,36.102 408.083,35.269 408.252,34.399C408.104,33.912 407.998,33.498 407.934,33.159C407.871,32.819 407.839,32.469 407.839,32.109C407.839,31.409 407.987,30.841 408.284,30.407C408.581,29.972 408.995,29.754 409.525,29.754C410.013,29.754 410.4,29.966 410.686,30.391C410.973,30.815 411.116,31.335 411.116,31.95C411.116,32.289 411.084,32.628 411.02,32.968C410.957,33.307 410.872,33.731 410.766,34.24C411.254,35.449 411.742,36.521 412.229,37.454C412.717,38.387 413.152,39.241 413.534,40.015C413.916,40.789 414.229,41.516 414.473,42.194C414.716,42.873 414.838,43.552 414.838,44.231C414.838,45.122 414.658,45.97 414.298,46.776C413.937,47.582 413.343,48.261 412.516,48.812C412.622,48.833 412.728,48.844 412.834,48.844L413.152,48.844C414.361,48.844 415.475,48.568 416.493,48.017C417.511,47.465 418.428,46.749 419.245,45.869C420.062,44.989 420.788,44.013 421.424,42.942C422.061,41.871 422.612,40.805 423.079,39.745C423.291,39.257 423.588,39.013 423.97,39.013C424.33,39.013 424.611,39.14 424.813,39.395C425.014,39.649 425.115,39.925 425.115,40.222C425.115,40.392 425.083,40.551 425.02,40.699C424.786,41.272 424.484,41.924 424.113,42.656C423.742,43.388 423.296,44.141 422.777,44.915C422.257,45.689 421.658,46.447 420.979,47.19C420.3,47.932 419.542,48.595 418.704,49.178C417.866,49.761 416.949,50.228 415.952,50.578C414.955,50.928 413.863,51.103 412.675,51.103C411.254,51.103 409.933,50.854 408.714,50.355C407.494,49.857 406.503,49.035 405.739,47.89C405.612,47.699 405.548,47.497 405.548,47.285C405.548,46.967 405.67,46.686 405.914,46.442C406.158,46.198 406.439,46.076 406.757,46.076C407.096,46.076 407.383,46.193 407.616,46.426C407.637,46.468 407.712,46.537 407.839,46.633C407.966,46.728 408.12,46.834 408.3,46.951C408.48,47.068 408.693,47.168 408.936,47.253C409.18,47.338 409.43,47.38 409.684,47.38C410.193,47.38 410.623,47.274 410.973,47.062C411.323,46.85 411.604,46.59 411.816,46.283C412.028,45.975 412.182,45.647 412.277,45.297C412.373,44.947 412.42,44.644 412.42,44.39C412.42,43.859 412.336,43.329 412.166,42.799C411.996,42.269 411.779,41.738 411.514,41.208C411.248,40.678 410.962,40.132 410.655,39.57C410.347,39.008 410.066,38.419 409.811,37.804C409.684,38.143 409.53,38.525 409.35,38.949C409.17,39.373 408.963,39.819 408.73,40.285C408.637,40.461 408.543,40.618 408.447,40.755C408.355,40.941 408.189,41.278 407.95,41.765C407.685,42.306 407.346,42.926 406.932,43.626C406.518,44.326 406.036,45.058 405.484,45.821C404.933,46.585 404.318,47.285 403.639,47.921C402.96,48.558 402.229,49.083 401.444,49.496C400.659,49.91 399.832,50.117 398.962,50.117C397.732,50.117 396.698,49.724 395.86,48.939C395.022,48.155 394.412,47.168 394.031,45.981C393.309,47.19 392.45,48.149 391.453,48.86C390.457,49.571 389.46,49.926 388.463,49.926C387.678,49.926 386.967,49.783 386.331,49.496C385.695,49.21 385.154,48.807 384.708,48.287C384.263,47.768 383.918,47.158 383.674,46.458C383.545,46.088 383.451,45.7 383.39,45.294C383.012,45.839 382.609,46.38 382.179,46.919C381.596,47.651 380.975,48.308 380.318,48.892C379.66,49.475 378.971,49.947 378.25,50.308C377.529,50.668 376.797,50.848 376.054,50.848C375.1,50.848 374.262,50.647 373.541,50.244C372.82,49.841 372.21,49.3 371.712,48.621C371.213,47.943 370.842,47.142 370.598,46.219C370.455,45.68 370.355,45.118 370.295,44.531C370.054,44.924 369.794,45.328 369.516,45.742C368.997,46.516 368.413,47.221 367.766,47.858C367.119,48.494 366.425,49.024 365.682,49.449C364.94,49.873 364.155,50.085 363.328,50.085C361.864,50.085 360.549,49.608 359.383,48.653C358.216,47.699 357.225,46.362 356.408,44.644C356.205,44.216 356.013,43.769 355.834,43.301C355.773,43.408 355.709,43.516 355.644,43.626C355.231,44.326 354.748,45.058 354.197,45.821C353.645,46.585 353.03,47.285 352.351,47.921C351.673,48.558 350.941,49.083 350.156,49.496C349.371,49.91 348.544,50.117 347.674,50.117C346.444,50.117 345.41,49.724 344.572,48.939C343.734,48.155 343.125,47.168 342.743,45.981C342.022,47.19 341.163,48.149 340.166,48.86C339.169,49.571 338.172,49.926 337.175,49.926C336.39,49.926 335.68,49.783 335.043,49.496C334.407,49.21 333.866,48.807 333.421,48.287C332.975,47.768 332.631,47.158 332.387,46.458C332.143,45.758 332.021,44.994 332.021,44.167C332.021,42.513 332.302,41.054 332.864,39.792C333.426,38.53 334.142,37.475 335.012,36.627C335.881,35.778 336.841,35.142 337.891,34.718C338.941,34.293 339.954,34.081 340.929,34.081C341.587,34.081 342.191,34.171 342.743,34.352C343.294,34.532 343.766,34.728 344.159,34.94C344.551,35.152 344.853,35.349 345.065,35.529C345.278,35.709 345.394,35.81 345.415,35.831C345.649,36.107 345.765,36.393 345.765,36.69C345.765,37.008 345.649,37.289 345.415,37.533C345.182,37.777 344.906,37.899 344.588,37.899C344.249,37.899 343.962,37.783 343.729,37.549C343.687,37.507 343.591,37.427 343.443,37.311C343.294,37.194 343.093,37.072 342.838,36.945C342.584,36.818 342.282,36.706 341.932,36.611C341.582,36.515 341.184,36.468 340.738,36.468C340.081,36.468 339.381,36.616 338.639,36.913C337.896,37.21 337.217,37.671 336.602,38.297C335.987,38.923 335.473,39.707 335.059,40.651C334.646,41.595 334.439,42.714 334.439,44.008C334.439,44.411 334.481,44.819 334.566,45.233C334.651,45.647 334.799,46.023 335.012,46.362C335.224,46.702 335.51,46.977 335.871,47.19C336.231,47.402 336.677,47.508 337.207,47.508C337.589,47.508 338.029,47.38 338.527,47.126C339.026,46.871 339.503,46.479 339.959,45.949C340.415,45.418 340.829,44.75 341.2,43.944C341.571,43.138 341.831,42.184 341.979,41.081C342.022,40.784 342.16,40.535 342.393,40.333C342.626,40.132 342.902,40.031 343.22,40.031C343.517,40.031 343.777,40.148 344,40.381C344.222,40.614 344.344,40.879 344.365,41.176C344.387,41.579 344.429,42.147 344.493,42.878C344.556,43.61 344.7,44.337 344.922,45.058C345.145,45.779 345.479,46.405 345.924,46.935C346.37,47.465 346.985,47.73 347.77,47.73C348.279,47.73 348.783,47.593 349.281,47.317C349.78,47.041 350.267,46.675 350.745,46.219C351.222,45.763 351.678,45.243 352.113,44.66C352.548,44.077 352.945,43.488 353.306,42.894C353.666,42.301 353.985,41.728 354.26,41.176C354.482,40.733 354.676,40.338 354.843,39.99ZM320.567,8.597C319.655,9.933 318.637,11.534 317.513,13.401C316.388,15.267 315.19,17.357 313.917,19.669C312.836,21.599 311.77,23.651 310.72,25.825C309.67,27.999 308.668,30.152 307.713,32.284C306.759,34.415 305.879,36.462 305.072,38.424C304.266,40.386 303.567,42.115 302.973,43.61C302.379,45.106 301.912,46.304 301.573,47.205C301.233,48.107 301.064,48.568 301.064,48.59C300.852,49.12 300.47,49.385 299.918,49.385C299.643,49.385 299.399,49.295 299.186,49.114C298.974,48.934 298.837,48.706 298.773,48.43C298.773,48.409 298.672,47.958 298.471,47.078C298.269,46.198 297.999,45.021 297.659,43.547C297.32,42.072 296.933,40.376 296.498,38.456C296.063,36.536 295.607,34.532 295.13,32.443C294.653,30.354 294.17,28.238 293.682,26.095C293.194,23.953 292.738,21.917 292.314,19.987C290.893,23.996 289.467,27.543 288.035,30.629C286.603,33.715 285.134,36.399 283.628,38.679C282.122,40.959 280.569,42.873 278.967,44.422C277.366,45.97 275.69,47.216 273.94,48.16C272.19,49.104 270.356,49.777 268.436,50.18C266.517,50.583 264.486,50.785 262.343,50.785C261.24,50.785 260.063,50.663 258.812,50.419C257.56,50.175 256.319,49.799 255.089,49.289C253.859,48.78 252.682,48.144 251.558,47.38C250.433,46.617 249.437,45.71 248.567,44.66C247.697,43.61 247.008,42.422 246.499,41.097C245.99,39.771 245.735,38.292 245.735,36.658C245.735,34.94 246.096,33.365 246.817,31.934C247.538,30.502 248.514,29.272 249.744,28.243C250.974,27.214 252.401,26.414 254.023,25.841C255.646,25.268 257.359,24.982 259.162,24.982C260.477,24.982 261.659,25.093 262.709,25.316C263.759,25.539 264.687,25.82 265.493,26.159C266.299,26.498 266.988,26.87 267.561,27.273C268.134,27.676 268.611,28.047 268.993,28.386C269.375,28.726 269.65,29.017 269.82,29.261C269.99,29.505 270.085,29.627 270.106,29.627C270.234,29.86 270.297,30.083 270.297,30.295C270.297,30.592 270.186,30.868 269.963,31.122C269.741,31.377 269.449,31.504 269.088,31.504C268.664,31.504 268.325,31.324 268.07,30.963C268.049,30.942 267.879,30.746 267.561,30.375C267.243,30.004 266.723,29.595 266.002,29.15C265.281,28.704 264.353,28.301 263.218,27.941C262.083,27.58 260.699,27.4 259.066,27.4C257.582,27.4 256.176,27.628 254.851,28.084C253.525,28.54 252.369,29.182 251.383,30.009C250.396,30.836 249.612,31.817 249.028,32.952C248.445,34.087 248.153,35.333 248.153,36.69C248.153,38.027 248.376,39.246 248.821,40.349C249.267,41.452 249.861,42.438 250.603,43.308C251.346,44.178 252.205,44.931 253.18,45.567C254.156,46.203 255.174,46.728 256.235,47.142C257.295,47.555 258.361,47.863 259.432,48.065C260.503,48.266 261.516,48.367 262.471,48.367C264.083,48.367 265.658,48.245 267.195,48.001C268.733,47.757 270.25,47.296 271.745,46.617C273.24,45.938 274.709,45.005 276.152,43.817C277.594,42.629 279.026,41.081 280.447,39.172C281.868,37.263 283.273,34.962 284.662,32.268C286.052,29.574 287.446,26.392 288.846,22.723C289.27,21.62 289.684,20.432 290.087,19.16C290.49,17.887 290.904,16.604 291.328,15.31C290.967,13.443 290.707,11.852 290.548,10.537C290.389,9.222 290.31,8.13 290.31,7.26C290.31,6.327 290.384,5.585 290.532,5.033C290.681,4.482 290.872,4.063 291.105,3.776C291.338,3.49 291.593,3.31 291.869,3.236C292.145,3.161 292.41,3.124 292.664,3.124C292.876,3.124 293.115,3.167 293.38,3.251C293.645,3.336 293.889,3.522 294.112,3.808C294.335,4.095 294.52,4.513 294.669,5.065C294.817,5.616 294.891,6.359 294.891,7.292C294.891,8.31 294.796,9.487 294.605,10.824C294.414,12.16 294.128,13.634 293.746,15.246C294.022,16.54 294.34,17.982 294.7,19.573C295.061,21.164 295.432,22.813 295.814,24.521C296.196,26.228 296.588,27.973 296.991,29.754C297.394,31.536 297.787,33.275 298.168,34.972C298.55,36.669 298.916,38.292 299.266,39.84C299.616,41.388 299.939,42.788 300.236,44.04C300.809,42.597 301.509,40.853 302.336,38.806C303.164,36.759 304.086,34.585 305.104,32.284C306.122,29.982 307.199,27.639 308.334,25.252C309.468,22.866 310.63,20.612 311.818,18.491C313.493,15.479 315.031,12.897 316.431,10.744C317.831,8.591 319.04,6.815 320.058,5.415C321.076,4.015 321.877,2.981 322.46,2.313C323.043,1.645 323.356,1.279 323.399,1.215C323.632,0.982 323.918,0.865 324.258,0.865C324.618,0.865 324.91,0.987 325.133,1.231C325.355,1.475 325.467,1.756 325.467,2.074C325.467,2.223 325.435,2.371 325.371,2.52C325.371,2.541 325.249,2.854 325.005,3.458C324.761,4.063 324.454,4.89 324.083,5.94C323.711,6.99 323.303,8.22 322.858,9.631C322.412,11.041 321.977,12.558 321.553,14.18C321.129,15.803 320.753,17.5 320.424,19.271C320.095,21.042 319.856,22.808 319.708,24.568C319.644,25.374 319.591,26.217 319.549,27.098C319.506,27.978 319.485,28.863 319.485,29.754C319.485,31.154 319.549,32.565 319.676,33.986C319.803,35.407 320.015,36.775 320.312,38.09C320.609,39.405 321.012,40.641 321.521,41.797C322.031,42.953 322.656,43.966 323.399,44.835C324.141,45.705 325.027,46.405 326.055,46.935C327.084,47.465 328.277,47.752 329.635,47.794C329.974,47.815 330.244,47.958 330.446,48.224C330.647,48.489 330.748,48.77 330.748,49.067C330.748,49.364 330.632,49.629 330.398,49.862C330.165,50.095 329.889,50.212 329.571,50.212C329.232,50.212 328.892,50.18 328.553,50.117C327.026,49.905 325.679,49.464 324.512,48.796C323.346,48.128 322.338,47.301 321.49,46.315C320.641,45.328 319.936,44.204 319.374,42.942C318.812,41.68 318.361,40.328 318.022,38.886C317.682,37.443 317.444,35.943 317.306,34.384C317.168,32.825 317.099,31.25 317.099,29.659C317.099,27.771 317.194,25.883 317.385,23.996C317.576,22.108 317.831,20.268 318.149,18.475C318.467,16.683 318.838,14.949 319.263,13.274C319.687,11.598 320.122,10.039 320.567,8.597ZM356.806,37.549C357.442,36.149 358.02,34.638 358.54,33.015C359.059,31.393 359.505,29.754 359.876,28.1C360.247,26.445 360.533,24.823 360.735,23.232C360.936,21.641 361.037,20.178 361.037,18.841L357.283,18.841C356.986,20.156 356.747,21.784 356.567,23.725C356.387,25.666 356.297,28.026 356.297,30.804C356.297,32.353 356.339,33.652 356.424,34.702C356.509,35.752 356.636,36.701 356.806,37.549ZM375.386,24.6C375.386,25.406 375.105,26.09 374.543,26.652C373.981,27.214 373.297,27.495 372.491,27.495C371.685,27.495 371.001,27.214 370.439,26.652C369.877,26.09 369.596,25.406 369.596,24.6C369.596,24.197 369.67,23.821 369.818,23.471C369.967,23.121 370.174,22.813 370.439,22.548C370.704,22.283 371.012,22.076 371.362,21.928C371.712,21.779 372.088,21.705 372.491,21.705C372.894,21.705 373.271,21.779 373.62,21.928C373.97,22.076 374.278,22.283 374.543,22.548C374.808,22.813 375.015,23.121 375.164,23.471C375.312,23.821 375.386,24.197 375.386,24.6ZM373.605,24.6C373.605,24.303 373.493,24.043 373.271,23.821C373.048,23.598 372.788,23.487 372.491,23.487C372.194,23.487 371.94,23.598 371.727,23.821C371.515,24.043 371.409,24.303 371.409,24.6C371.409,24.897 371.515,25.152 371.727,25.364C371.94,25.576 372.194,25.682 372.491,25.682C372.788,25.682 373.048,25.576 373.271,25.364C373.493,25.152 373.605,24.897 373.605,24.6ZM359.765,13.751C359.574,13.751 359.298,13.958 358.937,14.371C358.577,14.785 358.216,15.532 357.856,16.614L360.91,16.614C360.804,15.723 360.65,15.023 360.449,14.514C360.247,14.005 360.019,13.751 359.765,13.751Z" style="fill-rule:nonzero;"/>
        </g>
    </g>
</svg>
