<?xml version="1.0" encoding="UTF-8" standalone="no"?>
<!DOCTYPE svg PUBLIC "-//W3C//DTD SVG 1.1//EN" "http://www.w3.org/Graphics/SVG/1.1/DTD/svg11.dtd">
<svg width="100%" height="100%" viewBox="0 0 95 76" version="1.1" xmlns="http://www.w3.org/2000/svg" xmlns:xlink="http://www.w3.org/1999/xlink" xml:space="preserve" xmlns:serif="http://www.serif.com/" style="fill-rule:evenodd;clip-rule:evenodd;stroke-linejoin:round;stroke-miterlimit:2;">
    <g transform="matrix(0.150861,-0.150861,0.150861,0.150861,-31.8328,32.1159)">
        <path d="M377.75,187.342C398.748,187.342 415.934,205.187 415.985,227.372C416.083,269.762 416.122,283.96 416.071,322.437C416.055,336.819 416.145,354.563 416.126,378.37C416.075,431.58 375.584,474.915 325.644,474.915L325.644,475.001L227.149,475.001C194.185,475.001 163.78,455.848 147.799,425.146L60.4,257.149C58.664,253.809 59.491,249.712 62.39,247.309L71.379,239.861C81.757,230.216 95.658,225.3 109.79,226.268C124.218,227.325 137.553,234.328 146.613,245.608L156.944,258.155L157.12,75.601C157.132,53.381 174.353,35.305 195.386,35.305C216.443,35.305 233.754,53.393 233.754,75.628L233.754,167.639C239.989,162.816 247.679,160.253 255.56,160.374L256.27,160.374C270.975,160.374 283.765,169.129 290.14,182.036C297.073,174.814 306.632,170.705 316.639,170.635C332.968,170.635 346.908,181.548 352.393,196.729C359.17,190.639 367.972,187.291 377.083,187.342L377.75,187.342Z"/>
    </g>
    <g transform="matrix(0.150861,-0.150861,0.150861,0.150861,-31.8328,32.1159)">
        <path d="M399.973,322.383C399.957,336.768 399.934,354.583 399.911,378.39C399.868,422.801 366.342,459.016 325.176,459.016L227.153,459.016C200.17,459.016 175.196,443.156 161.981,417.765L77.555,255.533L81.722,252.057C81.827,251.971 81.929,251.87 82.03,251.78C89.197,245.034 98.842,241.57 108.662,242.213C118.701,242.982 127.963,247.89 134.241,255.76L158.7,285.521C160.838,288.131 164.388,289.11 167.564,287.975C170.74,286.84 172.863,283.828 172.863,280.457L173.007,75.609C173.015,62.195 183.159,51.282 195.394,51.282C207.63,51.282 217.774,62.207 217.774,75.628L217.774,199.14C217.774,199.569 217.754,200.002 217.754,200.439C217.754,200.627 217.774,200.818 217.774,201.001L217.774,253.809C217.774,258.222 221.351,261.799 225.764,261.799C230.177,261.799 233.754,258.222 233.754,253.809L233.754,199.409C233.754,186.468 243.641,176.355 255.56,176.355L256.27,176.355C268.514,176.355 278.701,187.026 278.701,200.447L278.701,248.768C278.701,253.181 282.278,256.758 286.691,256.758C291.104,256.758 294.681,253.181 294.681,248.768L294.681,210.856C294.681,197.431 304.381,186.511 316.69,186.511C328.929,186.511 338.629,197.427 338.629,210.856L338.629,246.622C338.629,251.035 342.206,254.613 346.619,254.613C351.032,254.613 354.61,251.035 354.61,246.622L354.61,227.255C354.61,213.829 364.839,203.323 377.083,203.323L377.75,203.323C389.962,203.323 399.915,214.009 399.946,227.391C400.043,269.751 400.024,283.933 399.973,322.383Z" style="fill:white;"/>
    </g>
</svg>
